# xmcd CD database file
#
# Track frame offsets:
#	150
#	16057
#	32116
#	48613
#	66385
#	80585
#	93143
#	108456
#	126921
#
# Disc length: 2045 seconds
#
# Revision: 1
# Processed by: cddbd v1.5.2PL0 Copyright (c) Steve Scherf et al.
# Submitted via: CDex 1.70beta2
#
DISCID=7307fb09
DTITLE=Youpi WHAOU - Paris Nashville (Disk 1)
DYEAR=2005
DGENRE=Country
TTITLE0=Tenter sa chance
TTITLE1=Eternitè
TTITLE2=Lâchez les fauves
TTITLE3=Vole
TTITLE4=Pousiière d'étoile
TTITLE5=Le souffle de ma vie
TTITLE6=Le loup y'a
TTITLE7=Rendez-vous au Billy
TTITLE8=Marie-Thérèse, Madeleine
EXTD=YEAR: 2005
EXTT0=
EXTT1=
EXTT2=
EXTT3=
EXTT4=
EXTT5=
EXTT6=
EXTT7=
EXTT8=
PLAYORDER=
